<svg xmlns="http://www.w3.org/2000/svg" xmlns:svg="http://www.w3.org/2000/svg" id="svg5" width="2582.611" height="326.639" version="1.1" viewBox="0 0 683.316 86.423" xml:space="preserve"><g id="layer1" transform="translate(-16.819387,-105.28843)"><g id="g1889" transform="matrix(0.99999838,0,0,0.99999838,2.7246339e-5,1.7056057e-4)"><path id="path611" d="m 117.45687,140.53998 c 0,-8.79151 -7.14446,-15.92006 -15.92005,-15.92006 -8.791506,0 -15.920054,7.12059 -15.920054,15.92006 h 7.960026 c 0,-4.39758 3.534022,-7.96003 7.960028,-7.96003 4.39757,0 7.96003,3.53402 7.96003,7.96003 0,4.39757 -3.54199,7.96002 -7.97595,7.96002 H 16.819387 v 7.96003 h 84.726523 c 8.7881,0 15.9121,-7.14447 15.9121,-15.92005 z m -35.820116,-19.3315 c 0,-8.79151 -7.144465,-15.92005 -15.920061,-15.92005 -8.791503,0 -15.920051,7.12058 -15.920051,15.90845 v 0.0116 h 7.960026 c 0,-4.39757 3.534022,-7.96002 7.960025,-7.96002 4.397573,0 7.960035,3.53402 7.960035,7.96002 0,4.39758 -3.570417,7.96003 -7.983914,7.96003 H 24.780551 v 7.96003 h 40.953201 c 8.783551,0 15.904136,-7.14447 15.904136,-15.92006 z m 19.900066,58.56306 c 0,6.59453 -5.36142,11.94003 -11.940041,11.94003 -6.594538,0 -11.940038,-5.34094 -11.940038,-11.90456 v -0.0355 h 7.960025 c 0,2.19701 1.767015,3.98001 3.980013,3.98001 2.19701,0 3.980013,-1.76701 3.980013,-3.98001 0,-2.19702 -1.787457,-3.98001 -4.007534,-3.98001 H 40.699241 v -7.96003 h 48.897312 c 6.594539,0 11.940037,5.36142 11.940037,11.94004 z" style="fill:#17bdcb;fill-opacity:1;stroke-width:.227429"/><g id="g1881" transform="translate(0,68.989522)"><text xml:space="preserve" style="font-size:66.4788px;font-family:Inter;-inkscape-font-specification:Inter;fill:#fff;stroke-width:42.8282;stroke-linecap:round;stroke-linejoin:round;stop-color:#000" id="text723" x="145.694" y="104.251"><tspan id="tspan721" style="font-style:normal;font-variant:normal;font-weight:500;font-stretch:normal;font-family:Inter;-inkscape-font-specification:'Inter Medium';fill:#fff;stroke-width:42.8282" x="145.694" y="104.251">tailwind</tspan></text><text xml:space="preserve" style="font-size:49.6672px;font-family:Inter;-inkscape-font-specification:Inter;fill:#17bdcb;fill-opacity:.980392;stroke-width:31.9975;stroke-linecap:round;stroke-linejoin:round;stop-color:#000" id="text723-3" x="400.104" y="103.96"><tspan id="tspan721-6" style="font-style:normal;font-variant:normal;font-weight:500;font-stretch:normal;font-family:Inter;-inkscape-font-specification:'Inter Medium';fill:#17bdcb;fill-opacity:.980392;stroke-width:31.9975" x="400.104" y="103.96">BOOTSTRAP</tspan></text></g></g></g></svg>